<svg width="91" height="91" viewBox="0 0 91 91" fill="none" xmlns="http://www.w3.org/2000/svg">
<path d="M44.5934 14.7725C27.6251 14.7725 13.8213 28.5784 13.8213 45.5467C13.8213 62.515 27.6251 76.321 44.5934 76.321C61.5617 76.321 75.3677 62.515 75.3677 45.5467C75.3677 28.5784 61.5639 14.7725 44.5934 14.7725ZM17.728 45.5467C17.7218 40.9657 18.8945 36.4602 21.1334 32.4635C24.1362 34.2614 27.5763 35.1971 31.0761 35.1678C40.2222 35.1678 47.6363 29.1341 47.6363 21.6939C47.6353 20.7197 47.5061 19.7499 47.2522 18.8094C53.5596 19.4456 59.4401 22.288 63.857 26.8355C68.2739 31.3831 70.9437 37.3438 71.3958 43.6672C66.838 44.3313 59.9968 46.6623 57.9154 53.8138C55.5279 62.0071 44.4067 58.3305 42.5988 72.3405C35.8413 71.8262 29.5265 68.7814 24.916 63.8144C20.3055 58.8474 17.7385 52.3238 17.728 45.5467Z" fill="#D1D1D1"/>
<path d="M44.7216 56.5485C48.8671 56.5485 50.7293 53.677 51.2329 51.4676C51.2675 51.3191 51.2682 51.1648 51.2348 51.0161C51.2015 50.8674 51.1349 50.7281 51.0402 50.6087C50.9454 50.4893 50.8249 50.3929 50.6876 50.3266C50.5504 50.2604 50.3999 50.226 50.2475 50.2261H39.1784C39.026 50.226 38.8755 50.2604 38.7382 50.3266C38.601 50.3929 38.4805 50.4893 38.3857 50.6087C38.291 50.7281 38.2244 50.8674 38.191 51.0161C38.1577 51.1648 38.1583 51.3191 38.193 51.4676C38.7139 53.677 40.5783 56.5485 44.7216 56.5485Z" fill="#D1D1D1"/>
<path d="M36.0545 41.3232C35.5063 41.3228 34.9702 41.485 34.5141 41.7893C34.0581 42.0936 33.7025 42.5263 33.4924 43.0327C33.2823 43.5391 33.2271 44.0965 33.3338 44.6342C33.4405 45.172 33.7043 45.6661 34.0918 46.0539C34.4793 46.4418 34.9732 46.7059 35.5109 46.8131C36.0486 46.9202 36.606 46.8654 37.1125 46.6557C37.6191 46.446 38.0521 46.0907 38.3567 45.6349C38.6614 45.1791 38.824 44.6431 38.824 44.0949C38.824 43.3602 38.5323 42.6555 38.013 42.1358C37.4937 41.6161 36.7893 41.3238 36.0545 41.3232Z" fill="#D1D1D1"/>
<path d="M53.3903 46.8665C53.9384 46.8665 54.4743 46.7039 54.9301 46.3994C55.3859 46.0948 55.7411 45.662 55.9509 45.1555C56.1607 44.6491 56.2156 44.0918 56.1086 43.5541C56.0017 43.0165 55.7377 42.5226 55.3501 42.135C54.9625 41.7474 54.4686 41.4834 53.931 41.3765C53.3933 41.2696 52.8361 41.3244 52.3296 41.5342C51.8232 41.744 51.3903 42.0992 51.0858 42.555C50.7812 43.0108 50.6187 43.5467 50.6187 44.0949C50.6187 44.8299 50.9107 45.5349 51.4304 46.0547C51.9502 46.5745 52.6552 46.8665 53.3903 46.8665Z" fill="#D1D1D1"/>
<path d="M77.1628 77.6971C83.3128 71.4137 87.522 63.4914 89.2869 54.8781C91.0517 46.2649 90.2974 37.3255 87.1142 29.1298C77.9767 5.64591 51.4348 -6.02657 27.9487 3.11303L29.366 6.75499C50.8531 -1.60327 75.1161 9.06865 83.4744 30.5471C86.3856 38.0446 87.0741 46.2224 85.4574 54.1012C83.8407 61.98 79.9873 69.2258 74.3587 74.971L71.5805 72.2645C71.2881 71.9793 70.9176 71.7872 70.516 71.7126C70.1143 71.638 69.6996 71.6843 69.3243 71.8456C68.9489 72.0069 68.6299 72.2759 68.4076 72.6186C68.1852 72.9614 68.0696 73.3623 68.0753 73.7708L68.1795 81.1263C68.1875 81.6726 68.4118 82.1935 68.8032 82.5747C69.1945 82.9559 69.7211 83.1664 70.2674 83.16L77.623 83.0732C78.0313 83.0682 78.4289 82.9421 78.7656 82.7111C79.1022 82.48 79.3628 82.1542 79.5143 81.7751C79.6657 81.3959 79.7014 80.9803 79.6166 80.5808C79.5318 80.1814 79.3305 79.8161 79.0381 79.5311L77.1628 77.6971Z" fill="#D1D1D1"/>
<path d="M28.9145 83.5178C22.7233 80.8001 17.2843 76.6199 13.0651 71.3364C8.84579 66.0529 5.97229 59.824 4.69144 53.185C3.41059 46.5459 3.76069 39.6951 5.71166 33.2212C7.66262 26.7473 11.1561 20.8438 15.892 16.018L18.3533 18.4054C18.6457 18.6907 19.0162 18.8828 19.4178 18.9574C19.8195 19.0319 20.2342 18.9857 20.6096 18.8244C20.9849 18.6631 21.3039 18.394 21.5262 18.0513C21.7486 17.7086 21.8642 17.3076 21.8585 16.8992L21.7543 9.54364C21.7509 9.27296 21.6942 9.00561 21.5874 8.75687C21.4806 8.50812 21.3258 8.28288 21.1319 8.094C20.938 7.90512 20.7087 7.75632 20.4573 7.65611C20.2058 7.55589 19.9371 7.50623 19.6664 7.50996L12.3109 7.59678C11.8993 7.5979 11.4974 7.72205 11.1569 7.95329C10.8164 8.18452 10.5528 8.51228 10.4 8.89446C10.2471 9.27664 10.2121 9.69578 10.2993 10.098C10.3864 10.5003 10.5919 10.8673 10.8892 11.1519L13.0879 13.2941C5.76372 20.7541 1.21916 30.5001 0.212424 40.9059C-0.794311 51.3118 1.79766 61.7482 7.55588 70.4739C13.3141 79.1996 21.8903 85.6869 31.8537 88.8534C41.817 92.0199 52.5649 91.6742 62.3041 87.8738L60.889 84.234C55.7767 86.2345 50.3184 87.2013 44.83 87.0783C39.3416 86.9554 33.9321 85.7452 28.9145 83.5178Z" fill="#D1D1D1"/>
</svg>
