<svg width="180" height="58" viewBox="0 0 180 58" fill="none" xmlns="http://www.w3.org/2000/svg">
<path d="M28.2083 9.34424C17.4749 9.34424 8.74316 18.0773 8.74316 28.8107C8.74316 39.5441 17.4749 48.2772 28.2083 48.2772C38.9417 48.2772 47.6747 39.5441 47.6747 28.8107C47.6747 18.0773 38.943 9.34424 28.2083 9.34424ZM11.2144 28.8107C11.2105 25.9129 11.9523 23.0629 13.3685 20.5348C15.2679 21.6721 17.444 22.264 19.6578 22.2455C25.4432 22.2455 30.1331 18.4288 30.1331 13.7224C30.1324 13.1062 30.0507 12.4928 29.8901 11.8978C33.8799 12.3003 37.5996 14.0982 40.3936 16.9748C43.1875 19.8514 44.8763 23.6219 45.1623 27.6218C42.2792 28.0419 37.9518 29.5164 36.6352 34.0401C35.125 39.2228 28.0902 36.8971 26.9466 45.7593C22.672 45.4339 18.6776 43.508 15.7612 40.366C12.8448 37.2241 11.2211 33.0976 11.2144 28.8107Z" fill="#004D00"/>
<path d="M28.2891 35.7701C30.9113 35.7701 32.0893 33.9537 32.4078 32.5561C32.4297 32.4622 32.4301 32.3646 32.409 32.2705C32.3879 32.1765 32.3458 32.0884 32.2859 32.0129C32.226 31.9373 32.1497 31.8763 32.0629 31.8344C31.9761 31.7925 31.8809 31.7708 31.7845 31.7708H24.7826C24.6862 31.7708 24.5911 31.7925 24.5042 31.8344C24.4174 31.8763 24.3412 31.9373 24.2812 32.0129C24.2213 32.0884 24.1792 32.1765 24.1581 32.2705C24.137 32.3646 24.1374 32.4622 24.1593 32.5561C24.4888 33.9537 25.6682 35.7701 28.2891 35.7701Z" fill="#004D00"/>
<path d="M22.8073 26.1392C22.4605 26.1389 22.1214 26.2415 21.8329 26.434C21.5444 26.6264 21.3195 26.9002 21.1866 27.2205C21.0537 27.5408 21.0188 27.8934 21.0863 28.2336C21.1537 28.5737 21.3206 28.8863 21.5658 29.1316C21.8109 29.3769 22.1233 29.544 22.4634 29.6118C22.8035 29.6795 23.1561 29.6449 23.4765 29.5122C23.797 29.3796 24.0709 29.1549 24.2636 28.8665C24.4563 28.5782 24.5591 28.2392 24.5591 27.8924C24.5591 27.4276 24.3746 26.9819 24.0461 26.6531C23.7176 26.3244 23.2721 26.1395 22.8073 26.1392Z" fill="#004D00"/>
<path d="M33.7727 29.6457C34.1195 29.6457 34.4584 29.5429 34.7468 29.3502C35.0351 29.1576 35.2598 28.8838 35.3925 28.5634C35.5252 28.2431 35.5599 27.8905 35.4923 27.5505C35.4246 27.2104 35.2576 26.898 35.0124 26.6528C34.7672 26.4076 34.4549 26.2406 34.1148 26.173C33.7747 26.1053 33.4222 26.14 33.1018 26.2727C32.7815 26.4054 32.5076 26.6301 32.315 26.9185C32.1224 27.2068 32.0195 27.5457 32.0195 27.8925C32.0195 28.3575 32.2042 28.8034 32.533 29.1322C32.8618 29.461 33.3078 29.6457 33.7727 29.6457Z" fill="#004D00"/>
<path d="M48.8104 49.1478C52.7006 45.1732 55.3632 40.1619 56.4795 34.7135C57.5959 29.2651 57.1187 23.6105 55.1052 18.4262C49.3252 3.57136 32.5359 -3.81215 17.6797 1.96917L18.5762 4.27291C32.168 -1.01416 47.5157 5.73643 52.8028 19.3227C54.6443 24.0654 55.0798 29.2383 54.0572 34.2221C53.0345 39.2059 50.597 43.7892 47.0366 47.4234L45.2793 45.7114C45.0943 45.531 44.8599 45.4095 44.6059 45.3623C44.3518 45.3151 44.0895 45.3444 43.852 45.4464C43.6146 45.5484 43.4128 45.7186 43.2722 45.9354C43.1316 46.1522 43.0584 46.4058 43.062 46.6642L43.1279 51.317C43.133 51.6626 43.2748 51.992 43.5224 52.2332C43.77 52.4743 44.1031 52.6074 44.4487 52.6034L49.1014 52.5485C49.3597 52.5453 49.6112 52.4656 49.8242 52.3194C50.0372 52.1732 50.202 51.9672 50.2978 51.7273C50.3936 51.4875 50.4161 51.2246 50.3625 50.9719C50.3089 50.7193 50.1816 50.4882 49.9966 50.3079L48.8104 49.1478Z" fill="#004D00"/>
<path d="M18.2901 52.8298C14.3737 51.1106 10.9333 48.4664 8.26439 45.1243C5.59546 41.7822 3.77781 37.8421 2.9676 33.6425C2.15739 29.4429 2.37885 25.1094 3.61295 21.0143C4.84704 16.9192 7.05688 13.1849 10.0526 10.1323L11.6095 11.6425C11.7945 11.8229 12.0288 11.9444 12.2829 11.9916C12.5369 12.0388 12.7993 12.0095 13.0367 11.9075C13.2741 11.8055 13.4759 11.6353 13.6166 11.4185C13.7572 11.2017 13.8303 10.9481 13.8267 10.6897L13.7608 6.0369C13.7587 5.86569 13.7228 5.69657 13.6553 5.53923C13.5877 5.38188 13.4898 5.2394 13.3671 5.11993C13.2445 5.00045 13.0994 4.90633 12.9404 4.84294C12.7813 4.77954 12.6113 4.74813 12.4401 4.75049L7.78731 4.80541C7.52695 4.80611 7.27275 4.88465 7.05736 5.03092C6.84197 5.17719 6.67523 5.38452 6.57856 5.62626C6.48189 5.86801 6.45971 6.13314 6.51486 6.38759C6.57001 6.64204 6.69997 6.8742 6.88806 7.05423L8.27881 8.40929C3.64588 13.1282 0.771187 19.293 0.13437 25.8753C-0.502447 32.4576 1.13712 39.0592 4.77952 44.5787C8.42193 50.0982 13.8469 54.2018 20.1493 56.2048C26.4516 58.2078 33.2503 57.9891 39.4109 55.5852L38.5157 53.2828C35.2819 54.5482 31.8293 55.1598 28.3575 55.082C24.8858 55.0042 21.464 54.2387 18.2901 52.8298Z" fill="#004D00"/>
<path d="M84.678 36.0728C84.678 36.1181 84.6497 36.203 84.593 36.3276C84.5364 36.4522 84.4685 36.5824 84.3892 36.7183C84.3212 36.8542 84.242 36.9845 84.1514 37.109C84.0721 37.2223 84.0041 37.2902 83.9475 37.3129C83.9135 37.3355 83.7606 37.3978 83.4888 37.4998C83.2284 37.5904 82.8773 37.7036 82.4356 37.8395C81.9939 37.9641 81.473 38.1 80.8728 38.2472C80.2839 38.3944 79.6383 38.536 78.9362 38.6719C78.2453 38.7965 77.5035 38.9041 76.7108 38.9947C75.9294 39.0739 75.1309 39.1192 74.3155 39.1306C73.636 39.1532 73.0018 39.1759 72.4129 39.1985C71.824 39.2212 71.2748 39.2325 70.7651 39.2325C70.482 39.2325 70.2102 39.2268 69.9497 39.2155C69.7006 39.2042 69.4628 39.1872 69.2362 39.1645C68.9191 39.1306 68.6134 39.0909 68.3189 39.0456C68.0584 39.0003 67.7866 38.9437 67.5035 38.8758C67.2317 38.8078 66.9939 38.7172 66.79 38.604C66.7334 38.5926 66.6824 38.5643 66.6371 38.519C66.5465 38.4511 66.5069 38.3548 66.5182 38.2302C66.4163 38.1736 66.3427 38.1113 66.2974 38.0434C66.2747 38.0094 66.2578 37.9867 66.2464 37.9754C66.2464 37.9528 66.2521 37.9244 66.2634 37.8905C66.2747 37.8452 66.3257 37.7602 66.4163 37.6357C66.337 37.6243 66.2747 37.6017 66.2294 37.5677C66.1955 37.5337 66.1672 37.4941 66.1445 37.4488C66.1105 37.4035 66.0935 37.3469 66.0935 37.2789C66.0935 37.211 66.1049 37.143 66.1275 37.0751C66.1502 37.0184 66.1785 36.9562 66.2125 36.8882C66.2578 36.8089 66.3257 36.7297 66.4163 36.6504C66.4163 36.5032 66.4333 36.3956 66.4673 36.3276C66.4786 36.2823 66.4956 36.254 66.5182 36.2427C66.5296 36.2087 66.5749 36.1747 66.6541 36.1408C66.7334 36.1068 66.824 36.0785 66.9259 36.0558C67.0279 36.0332 67.1298 36.0162 67.2317 36.0049C67.345 35.9935 67.4412 35.9935 67.5205 36.0049L67.5545 36.0388C67.5771 35.2914 67.6054 34.4816 67.6394 33.6096C67.6734 32.7376 67.7074 31.9278 67.7413 31.1804C67.7866 30.3083 67.8319 29.442 67.8772 28.5813C67.9225 27.5167 67.9905 26.3955 68.0811 25.2177C68.1604 24.2098 68.2566 23.0773 68.3699 21.8202C68.4831 20.5631 68.6304 19.2834 68.8116 17.981L66.858 18.015C66.7334 18.015 66.6145 17.998 66.5012 17.964C66.4106 17.9414 66.3144 17.9017 66.2125 17.8451C66.1105 17.7885 66.0369 17.7035 65.9916 17.5903C65.8104 17.5676 65.6745 17.5337 65.5839 17.4884C65.5046 17.4431 65.4424 17.3978 65.3971 17.3525C65.3518 17.3072 65.3291 17.2505 65.3291 17.1826C65.3518 17.058 65.3914 16.9617 65.448 16.8938C65.5046 16.8258 65.6179 16.7466 65.7878 16.656C65.9803 16.588 66.1162 16.5031 66.1955 16.4012C66.2861 16.2879 66.3823 16.22 66.4843 16.1973C66.5296 16.186 66.7957 16.135 67.2827 16.0444C67.7697 15.9425 68.3869 15.8292 69.1343 15.7047C69.8818 15.5688 70.7198 15.4442 71.6485 15.3309C72.5771 15.2064 73.5001 15.1158 74.4175 15.0591C75.1989 15.0025 75.9747 14.9685 76.7448 14.9572C77.5262 14.9459 78.2567 14.9402 78.9362 14.9402C79.8648 14.9402 80.6463 14.9516 81.2805 14.9742C81.9147 14.9969 82.2941 15.0252 82.4186 15.0591C82.4979 15.0818 82.5772 15.1214 82.6565 15.1781C82.7131 15.2347 82.7754 15.314 82.8433 15.4159C82.9113 15.5065 82.9679 15.6311 83.0132 15.7896C83.1038 15.8349 83.1661 15.8802 83.2001 15.9255C83.2454 15.9595 83.2793 15.9935 83.302 16.0274L83.3529 16.1294C83.3529 16.1973 83.3529 16.2822 83.3529 16.3842C83.3529 16.4748 83.3416 16.554 83.319 16.622C83.3076 16.6446 83.285 16.6673 83.251 16.6899C83.2284 16.7126 83.1944 16.7352 83.1491 16.7579C83.1151 16.7805 83.0698 16.8032 83.0132 16.8258C83.0245 16.9844 83.0245 17.109 83.0132 17.1996C83.0019 17.2902 82.9849 17.3638 82.9622 17.4204C82.9396 17.477 82.9113 17.5223 82.8773 17.5563C82.798 17.6129 82.6621 17.6582 82.4696 17.6922C82.2884 17.7149 81.9486 17.7262 81.4503 17.7262L70.935 17.947C70.901 18.2755 70.8671 18.6662 70.8331 19.1192C70.8104 19.5609 70.7821 20.0365 70.7481 20.5461C70.7255 21.0558 70.6972 21.5767 70.6632 22.109C70.6406 22.6413 70.6179 23.1566 70.5953 23.6549C70.5726 24.1418 70.55 24.5948 70.5273 25.0139C70.5047 25.4329 70.4877 25.7783 70.4763 26.0501C70.9067 25.9255 71.3823 25.8293 71.9033 25.7613C72.4243 25.6821 72.9112 25.6198 73.3642 25.5745C73.8965 25.5292 74.4231 25.4895 74.9441 25.4556C75.2725 25.4329 75.5896 25.4216 75.8954 25.4216C76.2012 25.4216 76.4956 25.4216 76.7787 25.4216C77.9113 25.4216 78.7833 25.4442 79.3948 25.4895C80.0177 25.5348 80.3745 25.5688 80.4651 25.5915C80.533 25.6028 80.6066 25.6481 80.6859 25.7274C80.7652 25.8066 80.8388 25.9029 80.9067 26.0161C80.9747 26.1181 81.0313 26.237 81.0766 26.3729C81.1332 26.4975 81.1615 26.6107 81.1615 26.7126C81.1615 26.9052 81.1106 27.109 81.0087 27.3242C80.9067 27.5394 80.8218 27.7149 80.7538 27.8508C80.6632 27.998 80.5443 28.1396 80.3971 28.2755C80.2499 28.4114 80.1253 28.468 80.0234 28.4454C79.9894 28.4454 79.8478 28.4397 79.5987 28.4284C79.3495 28.4171 79.0381 28.4057 78.6644 28.3944C78.302 28.3718 77.9056 28.3548 77.4752 28.3434C77.0449 28.3321 76.6259 28.3208 76.2182 28.3095C75.8105 28.2981 75.4424 28.2925 75.114 28.2925C74.7969 28.2812 74.5647 28.2755 74.4175 28.2755C74.2363 28.2755 73.9701 28.2925 73.6191 28.3265C73.3246 28.3491 72.9169 28.3887 72.3959 28.4454C71.875 28.502 71.2125 28.5813 70.4084 28.6832C70.3857 29.1475 70.3744 29.6345 70.3744 30.1441C70.3744 30.6538 70.3744 31.1917 70.3744 31.7579C70.3744 32.5394 70.3857 33.3151 70.4084 34.0853C70.431 34.844 70.4707 35.5292 70.5273 36.1408H72.362C73.0075 36.1408 73.6474 36.1351 74.2816 36.1238C74.9158 36.1011 75.4933 36.0728 76.0143 36.0388C76.7731 35.9822 77.4922 35.9199 78.1717 35.852C78.8626 35.784 79.4798 35.7217 80.0234 35.6651C80.567 35.6085 81.02 35.5688 81.3824 35.5462C81.7448 35.5122 81.9713 35.5009 82.0619 35.5122C82.1525 35.5349 82.2714 35.5405 82.4186 35.5292C82.5772 35.5179 82.7414 35.5009 82.9113 35.4782C83.0811 35.4556 83.2454 35.4329 83.4039 35.4103C83.5625 35.3876 83.687 35.365 83.7776 35.3423C83.8569 35.331 83.9475 35.3537 84.0494 35.4103C84.1514 35.4556 84.2476 35.5235 84.3382 35.6141C84.4288 35.6934 84.5024 35.7783 84.5591 35.8689C84.627 35.9596 84.6667 36.0275 84.678 36.0728Z" fill="#004D00"/>
<path d="M97.7754 34.0173C97.7754 34.6628 97.6339 35.3197 97.3507 35.9879C97.0676 36.656 96.6656 37.2676 96.1446 37.8225C95.635 38.3661 95.0121 38.8135 94.276 39.1645C93.5398 39.5156 92.7131 39.6912 91.7958 39.6912C91.0483 39.6912 90.2895 39.5326 89.5194 39.2155C88.7607 38.8984 88.0755 38.4454 87.4639 37.8565C86.8524 37.2563 86.3541 36.5315 85.969 35.6821C85.584 34.8327 85.3915 33.8814 85.3915 32.8282C85.3915 31.7863 85.5896 30.801 85.986 29.8723C86.3937 28.9323 86.926 28.1169 87.5829 27.4261C88.2397 26.724 88.9872 26.169 89.8252 25.7613C90.6746 25.3536 91.5466 25.1498 92.4413 25.1498C93.268 25.1498 93.9645 25.263 94.5308 25.4895C95.1084 25.7047 95.5727 25.9652 95.9238 26.271C96.2748 26.5654 96.524 26.8712 96.6712 27.1883C96.8298 27.5054 96.909 27.7602 96.909 27.9527C96.909 28.3831 96.8184 28.7342 96.6372 29.006C96.456 29.2778 96.2465 29.4816 96.0087 29.6175C95.7822 29.7534 95.5614 29.8327 95.3462 29.8553C95.1423 29.8667 95.0121 29.827 94.9555 29.7364C94.9102 29.6911 94.8592 29.6685 94.8026 29.6685C94.7573 29.6685 94.7063 29.6798 94.6497 29.7025C94.5931 29.7251 94.5364 29.7478 94.4798 29.7704C94.4345 29.7931 94.3949 29.7931 94.3609 29.7704C94.3043 29.7478 94.2986 29.6968 94.3439 29.6175C94.4005 29.5382 94.4289 29.4703 94.4289 29.4137C94.4289 29.3117 94.4232 29.1985 94.4119 29.0739C94.4119 28.938 94.4402 28.7964 94.4968 28.6492C94.5987 28.4454 94.6384 28.2245 94.6157 27.9867C94.6044 27.7376 94.5195 27.5054 94.3609 27.2902C94.2137 27.075 93.9759 26.8938 93.6474 26.7466C93.3303 26.5994 92.917 26.5258 92.4073 26.5258C92.0449 26.5258 91.6146 26.6447 91.1163 26.8825C90.618 27.1203 90.1423 27.4941 89.6893 28.0037C89.2476 28.502 88.8683 29.1419 88.5511 29.9233C88.2454 30.6934 88.0925 31.6164 88.0925 32.6923C88.0925 33.1566 88.1491 33.6436 88.2624 34.1532C88.3869 34.6628 88.6021 35.1328 88.9079 35.5632C89.2137 35.9935 89.627 36.3503 90.148 36.6334C90.6689 36.9052 91.3315 37.0411 92.1355 37.0411C92.6678 37.0411 93.1548 36.9675 93.5965 36.8203C94.0495 36.673 94.4572 36.4862 94.8196 36.2597C95.182 36.0332 95.5047 35.784 95.7879 35.5122C96.071 35.2404 96.3088 34.9856 96.5013 34.7478C96.6939 34.4986 96.8411 34.2834 96.943 34.1022C97.0563 33.921 97.1242 33.8078 97.1469 33.7625C97.1922 33.7059 97.2488 33.6662 97.3168 33.6436C97.3847 33.6096 97.4527 33.6039 97.5206 33.6266C97.5886 33.6379 97.6452 33.6775 97.6905 33.7455C97.7471 33.8021 97.7754 33.8927 97.7754 34.0173Z" fill="#004D00"/>
<path d="M111.637 32.0637C111.637 33.2529 111.462 34.3231 111.111 35.2744C110.771 36.2257 110.301 37.0354 109.701 37.7036C109.112 38.3718 108.427 38.8871 107.645 39.2495C106.864 39.6119 106.037 39.7931 105.165 39.7931C104.803 39.7931 104.406 39.7478 103.976 39.6572C103.546 39.5779 103.115 39.442 102.685 39.2495C102.254 39.057 101.835 38.8021 101.428 38.485C101.02 38.1679 100.658 37.7772 100.341 37.3129C100.023 36.8486 99.7686 36.305 99.5761 35.6821C99.3949 35.0592 99.31 34.3401 99.3213 33.5247C99.3213 32.596 99.4345 31.7523 99.661 30.9935C99.8875 30.2234 100.176 29.5382 100.527 28.938C100.89 28.3265 101.298 27.7998 101.751 27.3582C102.204 26.9165 102.657 26.5484 103.11 26.254C103.563 25.9482 103.999 25.7217 104.418 25.5745C104.837 25.4272 105.199 25.3423 105.505 25.3196C105.663 25.3083 105.731 25.3253 105.709 25.3706C105.697 25.4159 105.658 25.4669 105.59 25.5235C105.522 25.5801 105.459 25.6368 105.403 25.6934C105.358 25.75 105.38 25.784 105.471 25.7953C105.55 25.818 105.612 25.8406 105.658 25.8633C105.714 25.8859 105.771 25.9142 105.828 25.9482L105.963 25.7953C106.043 25.7387 106.116 25.7104 106.184 25.7104C106.264 25.7104 106.332 25.7217 106.388 25.7443C106.445 25.7557 106.49 25.7613 106.524 25.7613C106.558 25.7613 106.581 25.7274 106.592 25.6594C106.615 25.5348 106.654 25.4669 106.711 25.4556C106.779 25.4329 106.926 25.4216 107.153 25.4216C107.288 25.4216 107.492 25.4612 107.764 25.5405C108.047 25.6198 108.353 25.7557 108.681 25.9482C109.021 26.1407 109.361 26.4012 109.701 26.7296C110.052 27.0467 110.369 27.4544 110.652 27.9527C110.946 28.4397 111.184 29.0229 111.365 29.7025C111.547 30.382 111.637 31.169 111.637 32.0637ZM105.505 27.0864C105.108 27.3242 104.718 27.647 104.333 28.0547C103.948 28.4624 103.597 28.9323 103.279 29.4646C102.974 29.9969 102.724 30.5915 102.532 31.2483C102.339 31.9052 102.243 32.596 102.243 33.3208C102.243 34.1022 102.311 34.8101 102.447 35.4443C102.594 36.0785 102.804 36.6221 103.076 37.0751C103.347 37.5167 103.676 37.8622 104.061 38.1113C104.457 38.3491 104.905 38.4681 105.403 38.4681C105.845 38.4681 106.281 38.3435 106.711 38.0943C107.153 37.8452 107.543 37.4714 107.883 36.9731C108.223 36.4748 108.495 35.8576 108.698 35.1215C108.914 34.3854 109.021 33.5303 109.021 32.5564C109.021 31.5711 108.891 30.7444 108.63 30.0762C108.37 29.408 108.076 28.8701 107.747 28.4624C107.43 28.0433 107.124 27.7489 106.83 27.579C106.535 27.3978 106.354 27.3072 106.286 27.3072C106.128 27.3072 106.003 27.3072 105.912 27.3072C105.833 27.3072 105.697 27.2336 105.505 27.0864Z" fill="#004D00"/>
<path d="M134.842 16.4861C134.786 16.5993 134.729 16.6899 134.672 16.7579C134.627 16.8258 134.588 16.8768 134.554 16.9108C134.508 16.9561 134.469 16.9844 134.435 16.9957C134.344 17.0184 134.163 17.0524 133.891 17.0977C133.619 17.1316 133.251 17.1599 132.787 17.1826C132.447 17.2052 131.983 17.2562 131.394 17.3355C130.805 17.4034 130.131 17.494 129.372 17.6073C128.625 17.7092 127.809 17.8168 126.926 17.93C126.043 18.0433 125.125 18.1396 124.174 18.2188C124.084 19.8043 124.016 21.4238 123.97 23.0773C123.936 24.7307 123.908 26.3955 123.885 28.0716C123.863 29.7364 123.84 31.4012 123.817 33.066C123.806 34.7195 123.783 36.3446 123.749 37.9414C123.749 37.9981 123.727 38.0547 123.682 38.1113C123.636 38.1566 123.602 38.1963 123.58 38.2302C123.523 38.4567 123.421 38.6549 123.274 38.8248C123.127 38.9833 122.974 39.0626 122.815 39.0626C122.339 39.0626 121.971 38.989 121.711 38.8418C121.462 38.6946 121.247 38.536 121.065 38.3661C120.986 38.2642 120.907 38.117 120.828 37.9244C120.76 37.7206 120.697 37.4998 120.641 37.2619C120.584 37.0128 120.533 36.7523 120.488 36.4805C120.443 36.1974 120.414 35.9312 120.403 35.6821C120.38 35.4329 120.363 35.1894 120.352 34.9516C120.341 34.7138 120.335 34.4703 120.335 34.2212C120.335 33.6775 120.352 33.1453 120.386 32.6243C120.42 32.1034 120.448 31.6164 120.471 31.1634C120.482 30.8803 120.499 30.4782 120.522 29.9573C120.556 29.4363 120.595 28.8417 120.641 28.1736C120.686 27.5054 120.737 26.7919 120.794 26.0331C120.85 25.263 120.918 24.4929 120.997 23.7228C121.088 22.9527 121.184 22.2053 121.286 21.4805C121.388 20.7443 121.501 20.0761 121.626 19.4759C121.683 19.2947 121.734 19.1192 121.779 18.9493C121.824 18.7681 121.864 18.5812 121.898 18.3887C120.856 18.4567 119.837 18.4906 118.84 18.4906C117.56 18.4906 116.343 18.417 115.188 18.2698C114.033 18.1112 113.047 17.8394 112.232 17.4544C112.13 17.3978 112.073 17.2958 112.062 17.1486C112.039 17.0014 111.994 16.8485 111.926 16.6899C111.835 16.5654 111.802 16.4295 111.824 16.2822C111.847 16.1237 111.858 15.9935 111.858 15.8915C111.847 15.7896 111.881 15.7217 111.96 15.6877C112.028 15.6537 112.175 15.6424 112.402 15.6537C112.617 15.6537 112.917 15.665 113.302 15.6877C113.698 15.7103 114.214 15.7217 114.848 15.7217C115.324 15.7217 115.867 15.7103 116.479 15.6877C117.09 15.665 117.787 15.6254 118.568 15.5688C118.953 15.5348 119.508 15.4838 120.233 15.4159C120.969 15.3366 121.796 15.263 122.713 15.195C123.642 15.1158 124.627 15.0478 125.669 14.9912C126.711 14.9346 127.742 14.9062 128.761 14.9062C129.146 14.9062 129.576 14.9289 130.052 14.9742C130.528 15.0082 130.997 15.0591 131.462 15.1271C131.937 15.195 132.373 15.2743 132.77 15.3649C133.178 15.4555 133.512 15.5461 133.772 15.6367C133.942 15.7047 134.044 15.767 134.078 15.8236C134.112 15.8689 134.123 15.9085 134.112 15.9425C134.112 15.9765 134.106 16.0048 134.095 16.0274C134.084 16.0501 134.112 16.0727 134.18 16.0954C134.248 16.118 134.321 16.135 134.401 16.1463C134.48 16.1577 134.554 16.1803 134.622 16.2143C134.689 16.2369 134.746 16.2709 134.791 16.3162C134.837 16.3615 134.854 16.4181 134.842 16.4861Z" fill="#004D00"/>
<path d="M137.441 27.0184C137.43 27.3468 137.396 27.6753 137.34 28.0037C137.294 28.3208 137.226 28.6266 137.136 28.921C137.045 29.2041 136.932 29.459 136.796 29.6855C136.671 29.912 136.53 30.0932 136.371 30.2291C136.235 30.3423 136.128 30.3989 136.048 30.3989C135.969 30.3989 135.901 30.3763 135.845 30.331C135.799 30.2857 135.76 30.2347 135.726 30.1781C135.692 30.1215 135.646 30.0875 135.59 30.0762C135.545 30.0649 135.482 30.0705 135.403 30.0932C135.335 30.1045 135.261 30.1045 135.182 30.0932C135.114 30.0818 135.046 30.0422 134.978 29.9743C134.922 29.895 134.882 29.7591 134.859 29.5666C134.837 29.3514 134.842 29.0739 134.876 28.7342C134.922 28.3831 134.944 28.0433 134.944 27.7149C134.944 27.4204 134.91 27.177 134.842 26.9844C134.786 26.7806 134.678 26.6787 134.52 26.6787C134.44 26.6787 134.299 26.7409 134.095 26.8655C133.902 26.9788 133.687 27.2279 133.449 27.613C133.212 27.998 132.974 28.5586 132.736 29.2947C132.498 30.0196 132.306 30.9878 132.158 32.1996C132.158 33.7625 132.17 35.0196 132.192 35.9709C132.215 36.9222 132.226 37.664 132.226 38.1963C132.226 38.6493 132.215 38.972 132.192 39.1645C132.17 39.3571 132.113 39.4816 132.022 39.5383C131.966 39.5722 131.853 39.6119 131.683 39.6572C131.524 39.7138 131.349 39.7648 131.156 39.8101C130.975 39.8554 130.799 39.895 130.629 39.929C130.46 39.963 130.352 39.9743 130.307 39.963C130.273 39.9516 130.21 39.912 130.12 39.844C130.029 39.7874 129.933 39.7138 129.831 39.6232C129.74 39.5326 129.655 39.4363 129.576 39.3344C129.497 39.2438 129.452 39.1645 129.44 39.0966C129.418 38.9833 129.406 38.7285 129.406 38.3322C129.418 37.9244 129.423 37.4375 129.423 36.8712C129.435 36.305 129.446 35.6877 129.457 35.0196C129.469 34.3401 129.474 33.6662 129.474 32.998C129.474 32.5677 129.486 32.092 129.508 31.5711C129.542 31.0388 129.576 30.5009 129.61 29.9573C129.655 29.4137 129.701 28.8814 129.746 28.3604C129.791 27.8395 129.831 27.3751 129.865 26.9674C129.91 26.5484 129.944 26.203 129.967 25.9312C130.001 25.6481 130.024 25.4782 130.035 25.4216C130.046 25.331 130.086 25.297 130.154 25.3196C130.233 25.3423 130.312 25.3819 130.392 25.4386C130.482 25.4952 130.561 25.5462 130.629 25.5915C130.697 25.6368 130.743 25.6368 130.765 25.5915C130.788 25.4895 130.873 25.4782 131.02 25.5575C131.167 25.6254 131.303 25.7047 131.428 25.7953C131.473 25.8519 131.524 25.9029 131.581 25.9482C131.649 25.9822 131.711 26.0331 131.768 26.1011C131.824 26.1577 131.87 26.237 131.904 26.3389C131.949 26.4408 131.971 26.5767 131.971 26.7466C131.971 26.9052 131.983 27.143 132.005 27.4601C132.028 27.7772 132.056 28.1509 132.09 28.5813C132.215 28.1736 132.362 27.7432 132.532 27.2902C132.713 26.8372 132.928 26.4238 133.178 26.0501C133.427 25.6651 133.721 25.348 134.061 25.0988C134.401 24.8497 134.808 24.7251 135.284 24.7251C135.545 24.7251 135.805 24.776 136.065 24.878C136.326 24.9799 136.558 25.1328 136.762 25.3366C136.977 25.5292 137.147 25.767 137.272 26.0501C137.396 26.3332 137.453 26.656 137.441 27.0184Z" fill="#004D00"/>
<path d="M148.874 29.2778C148.885 29.6741 148.851 30.1611 148.772 30.7387C148.693 31.3049 148.602 31.9165 148.5 32.5734C148.398 33.2189 148.302 33.8814 148.212 34.5609C148.121 35.2404 148.076 35.8803 148.076 36.4805C148.076 36.8769 148.104 37.2563 148.161 37.6187C148.217 37.9697 148.314 38.2755 148.449 38.536C148.529 38.6832 148.568 38.8135 148.568 38.9267C148.58 39.04 148.574 39.1419 148.551 39.2325C148.529 39.3118 148.506 39.3797 148.483 39.4363C148.461 39.5043 148.461 39.5666 148.483 39.6232C148.506 39.6798 148.5 39.7421 148.466 39.8101C148.432 39.8893 148.381 39.9573 148.314 40.0139C148.246 40.0819 148.166 40.1272 148.076 40.1498C147.996 40.1838 147.923 40.1781 147.855 40.1328C147.73 40.0536 147.628 40.0083 147.549 39.9969C147.481 39.9856 147.419 39.9856 147.362 39.9969C147.317 40.0196 147.272 40.0422 147.226 40.0649C147.192 40.0875 147.147 40.0875 147.09 40.0649C146.898 39.963 146.688 39.844 146.462 39.7081C146.235 39.5722 146.088 39.425 146.02 39.2665C145.975 39.1985 145.93 39.0853 145.884 38.9267C145.85 38.7682 145.816 38.5813 145.782 38.3661C145.76 38.151 145.737 37.9188 145.714 37.6696C145.692 37.4205 145.675 37.177 145.663 36.9392C145.29 37.6413 144.888 38.2246 144.457 38.6889C144.038 39.1532 143.614 39.5213 143.183 39.7931C142.764 40.0762 142.345 40.2744 141.926 40.3877C141.518 40.5009 141.145 40.5575 140.805 40.5575C140.454 40.5575 140.142 40.5122 139.871 40.4216C139.61 40.331 139.406 40.2234 139.259 40.0989C138.704 39.5439 138.308 39.0966 138.07 38.7568C137.843 38.4058 137.742 38.1226 137.764 37.9075C137.821 37.1827 137.996 36.5145 138.291 35.9029C138.585 35.2914 138.953 34.7308 139.395 34.2212C139.837 33.7002 140.329 33.2359 140.873 32.8282C141.428 32.4091 141.988 32.0411 142.555 31.724C143.132 31.3955 143.699 31.1237 144.253 30.9086C144.808 30.6821 145.312 30.5009 145.765 30.365C145.743 29.7534 145.714 29.2211 145.68 28.7681C145.658 28.3038 145.618 27.9641 145.562 27.7489C145.392 27.0467 145.131 26.5258 144.78 26.186C144.429 25.8349 144.004 25.6594 143.506 25.6594C143.189 25.6594 142.866 25.7783 142.538 26.0161C142.221 26.254 141.932 26.5767 141.671 26.9844C141.411 27.3921 141.196 27.8621 141.026 28.3944C140.867 28.9267 140.782 29.4873 140.771 30.0762C140.771 30.2234 140.777 30.365 140.788 30.5009C140.799 30.6368 140.816 30.7783 140.839 30.9256C140.85 31.0048 140.822 31.0615 140.754 31.0954C140.697 31.1294 140.624 31.1577 140.533 31.1804C140.443 31.1917 140.346 31.203 140.244 31.2143C140.142 31.2257 140.058 31.2427 139.99 31.2653C139.933 31.288 139.888 31.3049 139.854 31.3163C139.82 31.3163 139.786 31.3106 139.752 31.2993C139.718 31.2766 139.673 31.2427 139.616 31.1974C139.571 31.1521 139.503 31.0954 139.412 31.0275C139.321 30.9595 139.225 30.9029 139.123 30.8576C139.033 30.8123 138.948 30.7727 138.868 30.7387C138.8 30.7047 138.738 30.6764 138.682 30.6538C138.636 30.6198 138.614 30.5801 138.614 30.5348C138.614 29.8327 138.766 29.1079 139.072 28.3604C139.389 27.613 139.808 26.9335 140.329 26.3219C140.862 25.699 141.473 25.1894 142.164 24.793C142.866 24.3967 143.608 24.1985 144.389 24.1985C145.024 24.1985 145.573 24.2947 146.037 24.4873C146.502 24.6798 146.898 24.9289 147.226 25.2347C147.555 25.5405 147.821 25.8802 148.025 26.254C148.24 26.6277 148.404 27.0071 148.517 27.3921C148.642 27.7659 148.727 28.1226 148.772 28.4624C148.829 28.7908 148.863 29.0626 148.874 29.2778ZM145.799 32.3016C145.46 32.4261 145.086 32.5903 144.678 32.7942C144.27 32.998 143.857 33.2415 143.438 33.5247C143.019 33.7965 142.6 34.1136 142.181 34.476C141.762 34.8384 141.371 35.2404 141.009 35.6821C140.579 36.1917 140.267 36.6447 140.075 37.0411C139.882 37.4375 139.763 37.7772 139.718 38.0604C139.673 38.3322 139.684 38.5473 139.752 38.7059C139.82 38.8644 139.899 38.9607 139.99 38.9947C140.341 39.1306 140.703 39.1476 141.077 39.0456C141.462 38.9324 141.841 38.7399 142.215 38.4681C142.6 38.1849 142.968 37.8508 143.319 37.4658C143.682 37.0694 144.021 36.6674 144.338 36.2597C144.656 35.8406 144.939 35.4329 145.188 35.0366C145.437 34.6289 145.641 34.2778 145.799 33.9833V32.3016Z" fill="#004D00"/>
<path d="M163.348 34.0173C163.348 34.6628 163.206 35.3197 162.923 35.9879C162.64 36.656 162.238 37.2676 161.717 37.8225C161.207 38.3661 160.584 38.8135 159.848 39.1645C159.112 39.5156 158.285 39.6912 157.368 39.6912C156.62 39.6912 155.862 39.5326 155.092 39.2155C154.333 38.8984 153.648 38.4454 153.036 37.8565C152.425 37.2563 151.926 36.5315 151.541 35.6821C151.156 34.8327 150.964 33.8814 150.964 32.8282C150.964 31.7863 151.162 30.801 151.558 29.8723C151.966 28.9323 152.498 28.1169 153.155 27.4261C153.812 26.724 154.559 26.169 155.397 25.7613C156.247 25.3536 157.119 25.1498 158.013 25.1498C158.84 25.1498 159.537 25.263 160.103 25.4895C160.68 25.7047 161.145 25.9652 161.496 26.271C161.847 26.5654 162.096 26.8712 162.243 27.1883C162.402 27.5054 162.481 27.7602 162.481 27.9527C162.481 28.3831 162.391 28.7342 162.209 29.006C162.028 29.2778 161.819 29.4816 161.581 29.6175C161.354 29.7534 161.133 29.8327 160.918 29.8553C160.714 29.8667 160.584 29.827 160.528 29.7364C160.482 29.6911 160.431 29.6685 160.375 29.6685C160.329 29.6685 160.278 29.6798 160.222 29.7025C160.165 29.7251 160.109 29.7478 160.052 29.7704C160.007 29.7931 159.967 29.7931 159.933 29.7704C159.876 29.7478 159.871 29.6968 159.916 29.6175C159.973 29.5382 160.001 29.4703 160.001 29.4137C160.001 29.3117 159.995 29.1985 159.984 29.0739C159.984 28.938 160.012 28.7964 160.069 28.6492C160.171 28.4454 160.211 28.2245 160.188 27.9867C160.177 27.7376 160.092 27.5054 159.933 27.2902C159.786 27.075 159.548 26.8938 159.22 26.7466C158.902 26.5994 158.489 26.5258 157.979 26.5258C157.617 26.5258 157.187 26.6447 156.688 26.8825C156.19 27.1203 155.714 27.4941 155.261 28.0037C154.82 28.502 154.44 29.1419 154.123 29.9233C153.818 30.6934 153.665 31.6164 153.665 32.6923C153.665 33.1566 153.721 33.6436 153.834 34.1532C153.959 34.6628 154.174 35.1328 154.48 35.5632C154.786 35.9935 155.199 36.3503 155.72 36.6334C156.241 36.9052 156.904 37.0411 157.708 37.0411C158.24 37.0411 158.727 36.9675 159.169 36.8203C159.622 36.673 160.029 36.4862 160.392 36.2597C160.754 36.0332 161.077 35.784 161.36 35.5122C161.643 35.2404 161.881 34.9856 162.073 34.7478C162.266 34.4986 162.413 34.2834 162.515 34.1022C162.628 33.921 162.696 33.8078 162.719 33.7625C162.764 33.7059 162.821 33.6662 162.889 33.6436C162.957 33.6096 163.025 33.6039 163.093 33.6266C163.161 33.6379 163.217 33.6775 163.263 33.7455C163.319 33.8021 163.348 33.8927 163.348 34.0173Z" fill="#004D00"/>
<path d="M168.75 16.2992C168.761 16.3332 168.755 16.5257 168.733 16.8768C168.71 17.2279 168.676 17.6866 168.631 18.2528C168.597 18.8191 168.551 19.4703 168.495 20.2064C168.438 20.9425 168.376 21.7183 168.308 22.5337C168.251 23.3378 168.189 24.1645 168.121 25.0139C168.064 25.8519 168.008 26.656 167.951 27.4261C167.895 28.1962 167.844 28.9097 167.798 29.5666C167.764 30.2234 167.736 30.7783 167.713 31.2313C167.951 31.0954 168.234 30.8746 168.563 30.5688C168.902 30.2517 169.254 29.895 169.616 29.4986C169.99 29.1022 170.369 28.6889 170.754 28.2585C171.139 27.8168 171.502 27.4035 171.841 27.0184C172.181 26.622 172.487 26.271 172.759 25.9652C173.03 25.6594 173.24 25.4442 173.387 25.3196C173.591 25.1498 173.761 25.0422 173.897 24.9969C174.044 24.9403 174.163 24.9233 174.254 24.9459C174.356 24.9572 174.435 24.9969 174.491 25.0648C174.559 25.1215 174.616 25.1837 174.661 25.2517C174.695 25.3196 174.724 25.3989 174.746 25.4895C174.78 25.5801 174.792 25.6821 174.78 25.7953C174.769 25.8972 174.724 26.0048 174.644 26.1181C174.576 26.2313 174.457 26.3446 174.288 26.4578C173.993 26.673 173.67 27.0127 173.319 27.4771C172.98 27.9301 172.6 28.4227 172.181 28.955C171.762 29.4873 171.303 30.0082 170.805 30.5179C170.318 31.0275 169.786 31.4408 169.208 31.7579C169.378 31.9278 169.576 32.1713 169.803 32.4884C170.041 32.8055 170.301 33.1509 170.584 33.5247C170.879 33.8984 171.196 34.2778 171.536 34.6628C171.887 35.0479 172.26 35.399 172.657 35.7161C173.064 36.0332 173.495 36.2936 173.948 36.4975C174.401 36.7013 174.882 36.8033 175.392 36.8033C175.947 36.8146 176.445 36.7636 176.887 36.6504C177.34 36.5258 177.73 36.3786 178.059 36.2087C178.387 36.0388 178.653 35.8689 178.857 35.6991C179.072 35.5292 179.22 35.399 179.299 35.3084C179.503 35.0252 179.673 34.9346 179.809 35.0366C179.956 35.1385 180.018 35.365 179.995 35.7161C179.984 35.852 179.927 36.0615 179.826 36.3446C179.735 36.6164 179.599 36.9165 179.418 37.2449C179.237 37.5734 179.016 37.9131 178.755 38.2642C178.495 38.604 178.189 38.9154 177.838 39.1985C177.498 39.4816 177.108 39.7138 176.666 39.895C176.235 40.0762 175.765 40.1668 175.256 40.1668C174.599 40.1668 173.993 40.0252 173.438 39.7421C172.895 39.459 172.391 39.0966 171.926 38.6549C171.462 38.2132 171.032 37.7206 170.635 37.177C170.25 36.6221 169.888 36.0785 169.548 35.5462C169.208 35.0139 168.886 34.5213 168.58 34.0683C168.285 33.6153 167.996 33.2585 167.713 32.998C167.736 33.1792 167.747 33.3661 167.747 33.5586C167.747 33.7398 167.747 33.9267 167.747 34.1192C167.747 34.7081 167.742 35.331 167.73 35.9879C167.73 36.6334 167.725 37.2336 167.713 37.7885C167.702 38.3435 167.691 38.8191 167.679 39.2155C167.679 39.6006 167.679 39.8271 167.679 39.895C167.679 40.0649 167.611 40.1725 167.476 40.2178C167.351 40.2744 167.221 40.3027 167.085 40.3027C166.96 40.3027 166.807 40.2461 166.626 40.1328C166.456 40.0309 166.286 39.9063 166.117 39.7591C165.947 39.6232 165.782 39.4816 165.624 39.3344C165.477 39.1872 165.369 39.0739 165.301 38.9947C165.244 38.9154 165.199 38.6323 165.165 38.1453C165.143 37.6583 165.131 37.0128 165.131 36.2087C165.131 35.6311 165.137 34.9856 165.148 34.2721C165.16 33.5473 165.177 32.7829 165.199 31.9788C165.233 31.1634 165.267 30.3197 165.301 29.4476C165.335 28.5643 165.375 27.6753 165.42 26.7806C165.488 25.263 165.55 23.9323 165.607 22.7885C165.664 21.6447 165.72 20.6594 165.777 19.8327C165.833 18.9946 165.901 18.3038 165.981 17.7602C166.06 17.2052 166.151 16.7692 166.252 16.4521C166.286 16.3728 166.36 16.2822 166.473 16.1803C166.587 16.0784 166.734 15.9935 166.915 15.9255C167.175 15.8349 167.408 15.7443 167.611 15.6537C167.827 15.5518 167.963 15.5008 168.019 15.5008C168.098 15.5008 168.178 15.5291 168.257 15.5858C168.348 15.6424 168.427 15.7103 168.495 15.7896C168.563 15.8689 168.619 15.9538 168.665 16.0444C168.71 16.135 168.738 16.22 168.75 16.2992Z" fill="#004D00"/>
</svg>
