<svg width="295" height="91" viewBox="0 0 295 91" fill="none" xmlns="http://www.w3.org/2000/svg">
<path d="M44.5934 14.7725C27.6251 14.7725 13.8213 28.5784 13.8213 45.5467C13.8213 62.515 27.6251 76.321 44.5934 76.321C61.5617 76.321 75.3677 62.515 75.3677 45.5467C75.3677 28.5784 61.5639 14.7725 44.5934 14.7725ZM17.728 45.5467C17.7218 40.9657 18.8945 36.4602 21.1334 32.4635C24.1362 34.2614 27.5763 35.1971 31.0761 35.1678C40.2222 35.1678 47.6363 29.1341 47.6363 21.6939C47.6353 20.7197 47.5061 19.7499 47.2522 18.8094C53.5596 19.4456 59.4401 22.288 63.857 26.8355C68.2739 31.3831 70.9437 37.3438 71.3958 43.6672C66.838 44.3313 59.9968 46.6623 57.9154 53.8138C55.5279 62.0071 44.4067 58.3305 42.5988 72.3405C35.8413 71.8262 29.5265 68.7814 24.916 63.8144C20.3055 58.8474 17.7385 52.3238 17.728 45.5467Z" fill="#004D00"/>
<path d="M44.7216 56.5485C48.8671 56.5485 50.7293 53.677 51.2329 51.4676C51.2675 51.3191 51.2682 51.1648 51.2348 51.0161C51.2015 50.8674 51.1349 50.7281 51.0402 50.6087C50.9454 50.4893 50.8249 50.3929 50.6876 50.3266C50.5504 50.2604 50.3999 50.226 50.2475 50.2261H39.1784C39.026 50.226 38.8755 50.2604 38.7382 50.3266C38.601 50.3929 38.4805 50.4893 38.3857 50.6087C38.291 50.7281 38.2244 50.8674 38.191 51.0161C38.1577 51.1648 38.1583 51.3191 38.193 51.4676C38.7139 53.677 40.5783 56.5485 44.7216 56.5485Z" fill="#004D00"/>
<path d="M36.0545 41.3232C35.5063 41.3228 34.9702 41.485 34.5141 41.7893C34.0581 42.0936 33.7025 42.5263 33.4924 43.0327C33.2823 43.5391 33.2271 44.0965 33.3338 44.6342C33.4405 45.172 33.7043 45.6661 34.0918 46.0539C34.4793 46.4418 34.9732 46.7059 35.5109 46.8131C36.0486 46.9202 36.606 46.8654 37.1125 46.6557C37.6191 46.446 38.0521 46.0907 38.3567 45.6349C38.6614 45.1791 38.824 44.6431 38.824 44.0949C38.824 43.3602 38.5323 42.6555 38.013 42.1358C37.4937 41.6161 36.7893 41.3238 36.0545 41.3232Z" fill="#004D00"/>
<path d="M53.3903 46.8665C53.9384 46.8665 54.4743 46.7039 54.9301 46.3994C55.3859 46.0948 55.7411 45.662 55.9509 45.1555C56.1607 44.6491 56.2156 44.0918 56.1086 43.5541C56.0017 43.0165 55.7377 42.5226 55.3501 42.135C54.9625 41.7474 54.4686 41.4834 53.931 41.3765C53.3933 41.2696 52.8361 41.3244 52.3296 41.5342C51.8232 41.744 51.3903 42.0992 51.0858 42.555C50.7812 43.0108 50.6187 43.5467 50.6187 44.0949C50.6187 44.8299 50.9107 45.5349 51.4304 46.0547C51.9502 46.5745 52.6552 46.8665 53.3903 46.8665Z" fill="#004D00"/>
<path d="M77.1628 77.6971C83.3128 71.4137 87.522 63.4914 89.2869 54.8781C91.0517 46.2649 90.2974 37.3255 87.1142 29.1298C77.9767 5.64591 51.4348 -6.02657 27.9487 3.11303L29.366 6.75499C50.8531 -1.60327 75.1161 9.06865 83.4744 30.5471C86.3856 38.0446 87.0741 46.2224 85.4574 54.1012C83.8407 61.98 79.9873 69.2258 74.3587 74.971L71.5805 72.2645C71.2881 71.9793 70.9176 71.7872 70.516 71.7126C70.1143 71.638 69.6996 71.6843 69.3243 71.8456C68.9489 72.0069 68.6299 72.2759 68.4076 72.6186C68.1852 72.9614 68.0696 73.3623 68.0753 73.7708L68.1795 81.1263C68.1875 81.6726 68.4118 82.1935 68.8032 82.5747C69.1945 82.9559 69.7211 83.1664 70.2674 83.16L77.623 83.0732C78.0313 83.0682 78.4289 82.9421 78.7656 82.7111C79.1022 82.48 79.3628 82.1542 79.5143 81.7751C79.6657 81.3959 79.7014 80.9803 79.6166 80.5808C79.5318 80.1814 79.3305 79.8161 79.0381 79.5311L77.1628 77.6971Z" fill="#004D00"/>
<path d="M28.9145 83.5178C22.7233 80.8001 17.2843 76.6199 13.0651 71.3364C8.84579 66.0529 5.97229 59.824 4.69144 53.185C3.41059 46.5459 3.76069 39.6951 5.71166 33.2212C7.66262 26.7473 11.1561 20.8438 15.892 16.018L18.3533 18.4054C18.6457 18.6907 19.0162 18.8828 19.4178 18.9574C19.8195 19.0319 20.2342 18.9857 20.6096 18.8244C20.9849 18.6631 21.3039 18.394 21.5262 18.0513C21.7486 17.7086 21.8642 17.3076 21.8585 16.8992L21.7543 9.54364C21.7509 9.27296 21.6942 9.00561 21.5874 8.75687C21.4806 8.50812 21.3258 8.28288 21.1319 8.094C20.938 7.90512 20.7087 7.75632 20.4573 7.65611C20.2058 7.55589 19.9371 7.50623 19.6664 7.50996L12.3109 7.59678C11.8993 7.5979 11.4974 7.72205 11.1569 7.95329C10.8164 8.18452 10.5528 8.51228 10.4 8.89446C10.2471 9.27664 10.2121 9.69578 10.2993 10.098C10.3864 10.5003 10.5919 10.8673 10.8892 11.1519L13.0879 13.2941C5.76372 20.7541 1.21916 30.5001 0.212424 40.9059C-0.794311 51.3118 1.79766 61.7482 7.55588 70.4739C13.3141 79.1996 21.8903 85.6869 31.8537 88.8534C41.817 92.0199 52.5649 91.6742 62.3041 87.8738L60.889 84.234C55.7767 86.2345 50.3184 87.2013 44.83 87.0783C39.3416 86.9554 33.9321 85.7452 28.9145 83.5178Z" fill="#004D00"/>
<path d="M133.866 57.0269C133.866 57.0985 133.821 57.2327 133.732 57.4297C133.642 57.6266 133.535 57.8325 133.41 58.0474C133.302 58.2622 133.177 58.4681 133.034 58.665C132.908 58.8441 132.801 58.9515 132.711 58.9873C132.658 59.0231 132.416 59.1216 131.986 59.2827C131.575 59.4259 131.02 59.605 130.321 59.8198C129.623 60.0168 128.799 60.2316 127.851 60.4644C126.92 60.6971 125.899 60.9209 124.789 61.1357C123.697 61.3327 122.524 61.5028 121.271 61.646C120.036 61.7713 118.773 61.8429 117.484 61.8608C116.41 61.8966 115.408 61.9325 114.477 61.9683C113.546 62.0041 112.677 62.022 111.872 62.022C111.424 62.022 110.994 62.013 110.583 61.9951C110.189 61.9772 109.813 61.9504 109.455 61.9146C108.953 61.8608 108.47 61.7982 108.004 61.7266C107.593 61.6549 107.163 61.5654 106.715 61.458C106.286 61.3506 105.91 61.2074 105.587 61.0283C105.498 61.0104 105.417 60.9657 105.346 60.894C105.202 60.7866 105.14 60.6344 105.158 60.4375C104.997 60.348 104.88 60.2495 104.809 60.1421C104.773 60.0884 104.746 60.0526 104.728 60.0347C104.728 59.9989 104.737 59.9541 104.755 59.9004C104.773 59.8288 104.853 59.6945 104.997 59.4976C104.871 59.4797 104.773 59.4438 104.701 59.3901C104.647 59.3364 104.603 59.2738 104.567 59.2021C104.513 59.1305 104.486 59.041 104.486 58.9336C104.486 58.8262 104.504 58.7188 104.54 58.6113C104.576 58.5218 104.621 58.4233 104.674 58.3159C104.746 58.1906 104.853 58.0653 104.997 57.9399C104.997 57.7072 105.023 57.5371 105.077 57.4297C105.095 57.3581 105.122 57.3133 105.158 57.2954C105.176 57.2417 105.247 57.188 105.373 57.1343C105.498 57.0806 105.641 57.0358 105.802 57C105.963 56.9642 106.125 56.9373 106.286 56.9194C106.465 56.9015 106.617 56.9015 106.742 56.9194L106.796 56.9731C106.832 55.7915 106.876 54.5114 106.93 53.1328C106.984 51.7542 107.038 50.4741 107.091 49.2925C107.163 47.9139 107.235 46.5443 107.306 45.1836C107.378 43.5007 107.485 41.7282 107.628 39.8662C107.754 38.2728 107.906 36.4824 108.085 34.4951C108.264 32.5078 108.497 30.4847 108.783 28.4258L105.695 28.4795C105.498 28.4795 105.31 28.4526 105.131 28.3989C104.988 28.3631 104.835 28.3005 104.674 28.2109C104.513 28.1214 104.397 27.9871 104.325 27.8081C104.039 27.7723 103.824 27.7186 103.681 27.647C103.555 27.5754 103.457 27.5037 103.385 27.4321C103.314 27.3605 103.278 27.271 103.278 27.1636C103.314 26.9666 103.376 26.8145 103.466 26.707C103.555 26.5996 103.734 26.4743 104.003 26.3311C104.307 26.2236 104.522 26.0894 104.647 25.9282C104.791 25.7492 104.943 25.6418 105.104 25.606C105.176 25.5881 105.596 25.5075 106.366 25.3643C107.136 25.2031 108.112 25.0241 109.293 24.8271C110.475 24.6123 111.8 24.4154 113.268 24.2363C114.736 24.0394 116.195 23.8962 117.646 23.8066C118.881 23.7171 120.107 23.6634 121.325 23.6455C122.56 23.6276 123.715 23.6187 124.789 23.6187C126.257 23.6187 127.493 23.6366 128.495 23.6724C129.498 23.7082 130.097 23.7529 130.294 23.8066C130.42 23.8424 130.545 23.9051 130.67 23.9946C130.76 24.0841 130.858 24.2095 130.966 24.3706C131.073 24.5138 131.163 24.7108 131.234 24.9614C131.378 25.033 131.476 25.1047 131.53 25.1763C131.601 25.23 131.655 25.2837 131.691 25.3374L131.771 25.4985C131.771 25.606 131.771 25.7402 131.771 25.9014C131.771 26.0446 131.754 26.1699 131.718 26.2773C131.7 26.3132 131.664 26.349 131.61 26.3848C131.575 26.4206 131.521 26.4564 131.449 26.4922C131.396 26.528 131.324 26.5638 131.234 26.5996C131.252 26.8503 131.252 27.0472 131.234 27.1904C131.216 27.3337 131.19 27.45 131.154 27.5396C131.118 27.6291 131.073 27.7007 131.02 27.7544C130.894 27.8439 130.679 27.9155 130.375 27.9692C130.089 28.005 129.551 28.0229 128.764 28.0229L112.14 28.3721C112.086 28.8913 112.033 29.509 111.979 30.2251C111.943 30.9233 111.898 31.6753 111.845 32.481C111.809 33.2866 111.764 34.1102 111.71 34.9517C111.675 35.7931 111.639 36.6077 111.603 37.3955C111.567 38.1654 111.531 38.8815 111.496 39.5439C111.46 40.2064 111.433 40.7524 111.415 41.1821C112.095 40.9852 112.847 40.833 113.671 40.7256C114.494 40.6003 115.264 40.5018 115.98 40.4302C116.822 40.3586 117.654 40.2959 118.478 40.2422C118.997 40.2064 119.499 40.1885 119.982 40.1885C120.465 40.1885 120.931 40.1885 121.378 40.1885C123.169 40.1885 124.547 40.2243 125.514 40.2959C126.499 40.3675 127.063 40.4212 127.206 40.457C127.313 40.4749 127.43 40.5465 127.555 40.6719C127.681 40.7972 127.797 40.9494 127.904 41.1284C128.012 41.2896 128.101 41.4775 128.173 41.6924C128.262 41.8893 128.307 42.0684 128.307 42.2295C128.307 42.5339 128.227 42.8561 128.065 43.1963C127.904 43.5365 127.77 43.814 127.663 44.0288C127.519 44.2616 127.331 44.4854 127.099 44.7002C126.866 44.915 126.669 45.0046 126.508 44.9688C126.454 44.9688 126.23 44.9598 125.836 44.9419C125.443 44.924 124.95 44.9061 124.359 44.8882C123.786 44.8524 123.16 44.8255 122.479 44.8076C121.799 44.7897 121.137 44.7718 120.492 44.7539C119.848 44.736 119.266 44.7271 118.747 44.7271C118.245 44.7091 117.878 44.7002 117.646 44.7002C117.359 44.7002 116.938 44.7271 116.383 44.7808C115.918 44.8166 115.273 44.8792 114.45 44.9688C113.626 45.0583 112.579 45.1836 111.308 45.3447C111.272 46.0788 111.254 46.8486 111.254 47.6543C111.254 48.46 111.254 49.3104 111.254 50.2056C111.254 51.4409 111.272 52.6673 111.308 53.8848C111.343 55.0843 111.406 56.1675 111.496 57.1343H114.396C115.417 57.1343 116.428 57.1253 117.431 57.1074C118.433 57.0716 119.346 57.0269 120.17 56.9731C121.369 56.8836 122.506 56.7852 123.581 56.6777C124.673 56.5703 125.648 56.4718 126.508 56.3823C127.367 56.2928 128.083 56.2301 128.656 56.1943C129.229 56.1406 129.587 56.1227 129.73 56.1406C129.874 56.1764 130.062 56.1854 130.294 56.1675C130.545 56.1496 130.805 56.1227 131.073 56.0869C131.342 56.0511 131.601 56.0153 131.852 55.9795C132.103 55.9437 132.3 55.9079 132.443 55.8721C132.568 55.8542 132.711 55.89 132.873 55.9795C133.034 56.0511 133.186 56.1585 133.329 56.3018C133.472 56.4271 133.589 56.5614 133.678 56.7046C133.786 56.8478 133.848 56.9552 133.866 57.0269ZM154.572 53.7773C154.572 54.7979 154.348 55.8363 153.9 56.8926C153.453 57.9489 152.817 58.9157 151.994 59.793C151.188 60.6523 150.203 61.3595 149.04 61.9146C147.876 62.4696 146.569 62.7471 145.119 62.7471C143.937 62.7471 142.737 62.4964 141.52 61.9951C140.32 61.4938 139.237 60.7777 138.271 59.8467C137.304 58.8978 136.516 57.752 135.907 56.4092C135.299 55.0664 134.994 53.5625 134.994 51.8975C134.994 50.2503 135.307 48.6927 135.934 47.2246C136.579 45.7386 137.42 44.4495 138.458 43.3574C139.497 42.2474 140.679 41.3701 142.003 40.7256C143.346 40.0811 144.725 39.7588 146.139 39.7588C147.446 39.7588 148.547 39.9378 149.442 40.2959C150.355 40.6361 151.09 41.0479 151.645 41.5312C152.2 41.9967 152.593 42.4801 152.826 42.9814C153.077 43.4827 153.202 43.8856 153.202 44.1899C153.202 44.8703 153.059 45.4253 152.772 45.855C152.486 46.2847 152.155 46.6069 151.779 46.8218C151.421 47.0366 151.072 47.1619 150.731 47.1978C150.409 47.2157 150.203 47.153 150.114 47.0098C150.042 46.9382 149.962 46.9023 149.872 46.9023C149.8 46.9023 149.72 46.9202 149.63 46.9561C149.541 46.9919 149.451 47.0277 149.362 47.0635C149.29 47.0993 149.228 47.0993 149.174 47.0635C149.084 47.0277 149.075 46.9471 149.147 46.8218C149.236 46.6965 149.281 46.589 149.281 46.4995C149.281 46.3384 149.272 46.1593 149.254 45.9624C149.254 45.7476 149.299 45.5238 149.389 45.291C149.55 44.9688 149.612 44.6196 149.577 44.2437C149.559 43.8498 149.424 43.4827 149.174 43.1426C148.941 42.8024 148.565 42.516 148.046 42.2832C147.545 42.0505 146.891 41.9341 146.085 41.9341C145.513 41.9341 144.832 42.1221 144.044 42.498C143.257 42.874 142.505 43.4648 141.789 44.2705C141.09 45.0583 140.491 46.0698 139.989 47.3052C139.506 48.5226 139.264 49.9818 139.264 51.6826C139.264 52.4167 139.354 53.1865 139.533 53.9922C139.73 54.7979 140.07 55.5409 140.553 56.2212C141.037 56.9015 141.69 57.4655 142.514 57.9131C143.337 58.3428 144.385 58.5576 145.656 58.5576C146.497 58.5576 147.267 58.4412 147.965 58.2085C148.681 57.9757 149.326 57.6803 149.899 57.3223C150.472 56.9642 150.982 56.5703 151.43 56.1406C151.877 55.7109 152.253 55.3081 152.558 54.9321C152.862 54.5382 153.095 54.1981 153.256 53.9116C153.435 53.6252 153.542 53.4461 153.578 53.3745C153.65 53.285 153.739 53.2223 153.847 53.1865C153.954 53.1328 154.062 53.1239 154.169 53.1597C154.276 53.1776 154.366 53.2402 154.438 53.3477C154.527 53.4372 154.572 53.5804 154.572 53.7773ZM176.486 50.689C176.486 52.5688 176.208 54.2607 175.653 55.7646C175.116 57.2686 174.373 58.5487 173.424 59.605C172.493 60.6613 171.41 61.4759 170.175 62.0488C168.939 62.6217 167.632 62.9082 166.254 62.9082C165.681 62.9082 165.054 62.8366 164.374 62.6934C163.694 62.568 163.013 62.3532 162.333 62.0488C161.653 61.7445 160.99 61.3416 160.346 60.8403C159.701 60.339 159.128 59.7214 158.627 58.9873C158.126 58.2533 157.723 57.3939 157.418 56.4092C157.132 55.4245 156.998 54.2876 157.016 52.9985C157.016 51.5304 157.195 50.1966 157.553 48.9971C157.911 47.7796 158.367 46.6965 158.922 45.7476C159.495 44.7808 160.14 43.9482 160.856 43.25C161.572 42.5518 162.288 41.9699 163.004 41.5044C163.721 41.021 164.41 40.6629 165.072 40.4302C165.735 40.1974 166.308 40.0632 166.791 40.0273C167.042 40.0094 167.149 40.0363 167.113 40.1079C167.095 40.1795 167.033 40.2601 166.925 40.3496C166.818 40.4391 166.719 40.5286 166.63 40.6182C166.558 40.7077 166.594 40.7614 166.737 40.7793C166.863 40.8151 166.961 40.8509 167.033 40.8867C167.122 40.9225 167.212 40.9673 167.301 41.021L167.516 40.7793C167.641 40.6898 167.758 40.645 167.865 40.645C167.991 40.645 168.098 40.6629 168.188 40.6987C168.277 40.7166 168.349 40.7256 168.402 40.7256C168.456 40.7256 168.492 40.6719 168.51 40.5645C168.546 40.3675 168.608 40.2601 168.698 40.2422C168.805 40.2064 169.038 40.1885 169.396 40.1885C169.611 40.1885 169.933 40.2511 170.363 40.3765C170.81 40.5018 171.294 40.7166 171.813 41.021C172.35 41.3254 172.887 41.7371 173.424 42.2563C173.979 42.7576 174.481 43.4022 174.928 44.1899C175.394 44.9598 175.77 45.8818 176.056 46.9561C176.343 48.0303 176.486 49.2746 176.486 50.689ZM166.791 42.8203C166.164 43.1963 165.547 43.7065 164.938 44.3511C164.329 44.9956 163.774 45.7386 163.273 46.5801C162.79 47.4215 162.396 48.3615 162.091 49.3999C161.787 50.4383 161.635 51.5304 161.635 52.6763C161.635 53.9116 161.742 55.0306 161.957 56.0332C162.19 57.0358 162.521 57.8952 162.951 58.6113C163.38 59.3096 163.9 59.8556 164.508 60.2495C165.135 60.6255 165.842 60.8135 166.63 60.8135C167.328 60.8135 168.017 60.6165 168.698 60.2227C169.396 59.8288 170.014 59.238 170.551 58.4502C171.088 57.6624 171.518 56.6867 171.84 55.5229C172.18 54.3592 172.35 53.0075 172.35 51.4678C172.35 49.9102 172.144 48.6032 171.732 47.5469C171.321 46.4906 170.855 45.6401 170.336 44.9956C169.835 44.3332 169.351 43.8677 168.886 43.5991C168.42 43.3127 168.134 43.1694 168.026 43.1694C167.776 43.1694 167.579 43.1694 167.436 43.1694C167.31 43.1694 167.095 43.0531 166.791 42.8203ZM213.17 26.0625C213.081 26.2415 212.991 26.3848 212.902 26.4922C212.83 26.5996 212.768 26.6802 212.714 26.7339C212.642 26.8055 212.58 26.8503 212.526 26.8682C212.383 26.904 212.096 26.9577 211.667 27.0293C211.237 27.083 210.655 27.1278 209.921 27.1636C209.384 27.1994 208.65 27.2799 207.719 27.4053C206.788 27.5127 205.722 27.6559 204.523 27.835C203.341 27.9961 202.052 28.1662 200.656 28.3452C199.259 28.5243 197.809 28.6764 196.305 28.8018C196.162 31.3083 196.055 33.8685 195.983 36.4824C195.929 39.0964 195.884 41.7282 195.849 44.3779C195.813 47.0098 195.777 49.6416 195.741 52.2734C195.723 54.8874 195.688 57.4565 195.634 59.981C195.634 60.0705 195.598 60.16 195.526 60.2495C195.455 60.3211 195.401 60.3838 195.365 60.4375C195.276 60.7956 195.115 61.1089 194.882 61.3774C194.649 61.6281 194.407 61.7534 194.157 61.7534C193.405 61.7534 192.823 61.637 192.411 61.4043C192.017 61.1715 191.677 60.9209 191.391 60.6523C191.265 60.4912 191.14 60.2585 191.015 59.9541C190.907 59.6318 190.809 59.2827 190.719 58.9067C190.63 58.5129 190.549 58.1011 190.478 57.6714C190.406 57.2238 190.361 56.8031 190.343 56.4092C190.307 56.0153 190.281 55.6304 190.263 55.2544C190.245 54.8784 190.236 54.4935 190.236 54.0996C190.236 53.2402 190.263 52.3988 190.316 51.5752C190.37 50.7516 190.415 49.9818 190.451 49.2656C190.469 48.818 190.495 48.1825 190.531 47.3589C190.585 46.5353 190.648 45.5954 190.719 44.5391C190.791 43.4827 190.871 42.3548 190.961 41.1553C191.05 39.9378 191.158 38.7204 191.283 37.5029C191.426 36.2855 191.579 35.1038 191.74 33.958C191.901 32.7943 192.08 31.738 192.277 30.7891C192.366 30.5026 192.447 30.2251 192.519 29.9565C192.59 29.6701 192.653 29.3747 192.707 29.0703C191.059 29.1777 189.448 29.2314 187.873 29.2314C185.849 29.2314 183.925 29.1151 182.099 28.8823C180.272 28.6317 178.715 28.202 177.426 27.5933C177.265 27.5037 177.175 27.3426 177.157 27.1099C177.121 26.8771 177.05 26.6354 176.942 26.3848C176.799 26.1878 176.745 25.973 176.781 25.7402C176.817 25.4896 176.835 25.2837 176.835 25.1226C176.817 24.9614 176.871 24.854 176.996 24.8003C177.104 24.7466 177.336 24.7287 177.694 24.7466C178.035 24.7466 178.509 24.7645 179.118 24.8003C179.744 24.8361 180.559 24.854 181.562 24.854C182.313 24.854 183.173 24.8361 184.14 24.8003C185.106 24.7645 186.208 24.7018 187.443 24.6123C188.052 24.5586 188.929 24.478 190.075 24.3706C191.238 24.2453 192.545 24.1289 193.996 24.0215C195.464 23.8962 197.021 23.7887 198.668 23.6992C200.316 23.6097 201.945 23.5649 203.556 23.5649C204.165 23.5649 204.845 23.6007 205.597 23.6724C206.349 23.7261 207.092 23.8066 207.826 23.9141C208.578 24.0215 209.267 24.1468 209.894 24.29C210.539 24.4333 211.067 24.5765 211.479 24.7197C211.747 24.8271 211.908 24.9256 211.962 25.0151C212.016 25.0868 212.034 25.1494 212.016 25.2031C212.016 25.2568 212.007 25.3016 211.989 25.3374C211.971 25.3732 212.016 25.409 212.123 25.4448C212.23 25.4806 212.347 25.5075 212.472 25.5254C212.597 25.5433 212.714 25.5791 212.821 25.6328C212.929 25.6686 213.018 25.7223 213.09 25.7939C213.161 25.8656 213.188 25.9551 213.17 26.0625ZM217.279 42.7129C217.261 43.2321 217.208 43.7513 217.118 44.2705C217.047 44.7718 216.939 45.2552 216.796 45.7207C216.653 46.1683 216.474 46.5711 216.259 46.9292C216.062 47.2873 215.838 47.5737 215.587 47.7886C215.373 47.9676 215.202 48.0571 215.077 48.0571C214.952 48.0571 214.844 48.0213 214.755 47.9497C214.683 47.8781 214.621 47.7975 214.567 47.708C214.513 47.6185 214.442 47.5648 214.352 47.5469C214.28 47.529 214.182 47.5379 214.057 47.5737C213.949 47.5916 213.833 47.5916 213.708 47.5737C213.6 47.5558 213.493 47.4932 213.385 47.3857C213.296 47.2604 213.233 47.0456 213.197 46.7412C213.161 46.401 213.17 45.9624 213.224 45.4253C213.296 44.8703 213.332 44.3332 213.332 43.814C213.332 43.3485 213.278 42.9635 213.17 42.6592C213.081 42.3369 212.911 42.1758 212.66 42.1758C212.535 42.1758 212.311 42.2743 211.989 42.4712C211.684 42.6502 211.344 43.0441 210.968 43.6528C210.592 44.2616 210.216 45.1478 209.84 46.3115C209.464 47.4574 209.16 48.9881 208.927 50.9038C208.927 53.3745 208.945 55.3618 208.981 56.8657C209.017 58.3696 209.035 59.5423 209.035 60.3838C209.035 61.0999 209.017 61.6102 208.981 61.9146C208.945 62.2189 208.856 62.4159 208.712 62.5054C208.623 62.5591 208.444 62.6217 208.175 62.6934C207.925 62.7829 207.647 62.8634 207.343 62.9351C207.056 63.0067 206.779 63.0693 206.51 63.123C206.242 63.1768 206.072 63.1947 206 63.1768C205.946 63.1589 205.848 63.0962 205.705 62.9888C205.561 62.8993 205.409 62.7829 205.248 62.6396C205.105 62.4964 204.971 62.3442 204.845 62.1831C204.72 62.0399 204.648 61.9146 204.63 61.8071C204.595 61.6281 204.577 61.2253 204.577 60.5986C204.595 59.9541 204.604 59.1842 204.604 58.2891C204.621 57.3939 204.639 56.4181 204.657 55.3618C204.675 54.2876 204.684 53.2223 204.684 52.166C204.684 51.4857 204.702 50.7337 204.738 49.9102C204.792 49.0687 204.845 48.2183 204.899 47.3589C204.971 46.4995 205.042 45.658 205.114 44.8345C205.185 44.0109 205.248 43.2769 205.302 42.6323C205.373 41.9699 205.427 41.4238 205.463 40.9941C205.517 40.5465 205.552 40.278 205.57 40.1885C205.588 40.0452 205.651 39.9915 205.758 40.0273C205.884 40.0632 206.009 40.1258 206.134 40.2153C206.278 40.3049 206.403 40.3854 206.51 40.457C206.618 40.5286 206.689 40.5286 206.725 40.457C206.761 40.2959 206.895 40.278 207.128 40.4033C207.361 40.5107 207.576 40.6361 207.772 40.7793C207.844 40.8688 207.925 40.9494 208.014 41.021C208.122 41.0747 208.22 41.1553 208.31 41.2627C208.399 41.3522 208.471 41.4775 208.524 41.6387C208.596 41.7998 208.632 42.0146 208.632 42.2832C208.632 42.5339 208.65 42.9098 208.686 43.4111C208.721 43.9124 208.766 44.5033 208.82 45.1836C209.017 44.5391 209.25 43.8587 209.518 43.1426C209.805 42.4264 210.145 41.7729 210.539 41.1821C210.932 40.5734 211.398 40.0721 211.935 39.6782C212.472 39.2843 213.117 39.0874 213.869 39.0874C214.28 39.0874 214.692 39.168 215.104 39.3291C215.516 39.4902 215.883 39.7319 216.205 40.0542C216.545 40.3586 216.814 40.7345 217.011 41.1821C217.208 41.6297 217.297 42.14 217.279 42.7129ZM235.353 46.2847C235.371 46.9113 235.317 47.6812 235.192 48.5942C235.067 49.4894 234.923 50.4562 234.762 51.4946C234.601 52.5151 234.449 53.5625 234.306 54.6367C234.162 55.7109 234.091 56.7225 234.091 57.6714C234.091 58.298 234.136 58.8978 234.225 59.4707C234.315 60.0257 234.467 60.5091 234.682 60.9209C234.807 61.1536 234.87 61.3595 234.87 61.5386C234.888 61.7176 234.879 61.8787 234.843 62.022C234.807 62.1473 234.771 62.2547 234.735 62.3442C234.7 62.4517 234.7 62.5501 234.735 62.6396C234.771 62.7292 234.762 62.8276 234.708 62.9351C234.655 63.0604 234.574 63.1678 234.467 63.2573C234.359 63.3647 234.234 63.4364 234.091 63.4722C233.965 63.5259 233.849 63.5169 233.742 63.4453C233.545 63.32 233.384 63.2484 233.258 63.2305C233.151 63.2126 233.052 63.2126 232.963 63.2305C232.891 63.2663 232.82 63.3021 232.748 63.3379C232.694 63.3737 232.623 63.3737 232.533 63.3379C232.229 63.1768 231.898 62.9888 231.54 62.7739C231.181 62.5591 230.949 62.3263 230.841 62.0757C230.77 61.9683 230.698 61.7892 230.626 61.5386C230.573 61.2879 230.519 60.9925 230.465 60.6523C230.43 60.3122 230.394 59.9451 230.358 59.5513C230.322 59.1574 230.295 58.7725 230.277 58.3965C229.687 59.5065 229.051 60.4285 228.371 61.1626C227.708 61.8966 227.037 62.4785 226.356 62.9082C225.694 63.3558 225.032 63.6691 224.369 63.8481C223.725 64.0272 223.134 64.1167 222.597 64.1167C222.042 64.1167 221.549 64.0451 221.12 63.9019C220.708 63.7586 220.386 63.5885 220.153 63.3916C219.276 62.5143 218.649 61.8071 218.273 61.27C217.915 60.715 217.754 60.2674 217.79 59.9272C217.879 58.7814 218.157 57.7251 218.622 56.7583C219.088 55.7915 219.669 54.9053 220.368 54.0996C221.066 53.276 221.845 52.542 222.704 51.8975C223.581 51.235 224.468 50.6532 225.363 50.1519C226.276 49.6326 227.171 49.203 228.048 48.8628C228.926 48.5047 229.722 48.2183 230.438 48.0034C230.403 47.0366 230.358 46.1951 230.304 45.479C230.268 44.745 230.206 44.2078 230.116 43.8677C229.848 42.7576 229.436 41.9341 228.881 41.397C228.326 40.842 227.654 40.5645 226.867 40.5645C226.365 40.5645 225.855 40.7524 225.336 41.1284C224.835 41.5044 224.378 42.0146 223.966 42.6592C223.555 43.3037 223.214 44.0467 222.946 44.8882C222.695 45.7297 222.561 46.6159 222.543 47.5469C222.543 47.7796 222.552 48.0034 222.57 48.2183C222.588 48.4331 222.615 48.6569 222.65 48.8896C222.668 49.015 222.624 49.1045 222.516 49.1582C222.427 49.2119 222.31 49.2567 222.167 49.2925C222.024 49.3104 221.872 49.3283 221.71 49.3462C221.549 49.3641 221.415 49.391 221.308 49.4268C221.218 49.4626 221.146 49.4894 221.093 49.5073C221.039 49.5073 220.985 49.4984 220.932 49.4805C220.878 49.4447 220.806 49.391 220.717 49.3193C220.645 49.2477 220.538 49.1582 220.395 49.0508C220.251 48.9434 220.099 48.8538 219.938 48.7822C219.795 48.7106 219.66 48.6479 219.535 48.5942C219.428 48.5405 219.329 48.4958 219.24 48.46C219.168 48.4062 219.132 48.3436 219.132 48.272C219.132 47.1619 219.374 46.0161 219.857 44.8345C220.359 43.6528 221.021 42.5786 221.845 41.6118C222.686 40.6271 223.653 39.8215 224.745 39.1948C225.855 38.5682 227.028 38.2549 228.263 38.2549C229.266 38.2549 230.134 38.4071 230.868 38.7114C231.602 39.0158 232.229 39.4097 232.748 39.8931C233.267 40.3765 233.688 40.9136 234.01 41.5044C234.35 42.0952 234.61 42.695 234.789 43.3037C234.986 43.8945 235.12 44.4585 235.192 44.9956C235.281 45.5148 235.335 45.9445 235.353 46.2847ZM230.492 51.0649C229.955 51.2619 229.364 51.5215 228.72 51.8438C228.075 52.166 227.422 52.5509 226.759 52.9985C226.097 53.4282 225.434 53.9295 224.772 54.5024C224.11 55.0754 223.492 55.7109 222.919 56.4092C222.239 57.2148 221.746 57.931 221.442 58.5576C221.138 59.1842 220.95 59.7214 220.878 60.1689C220.806 60.5986 220.824 60.9388 220.932 61.1895C221.039 61.4401 221.164 61.5923 221.308 61.646C221.863 61.8608 222.436 61.8877 223.026 61.7266C223.635 61.5475 224.235 61.2432 224.826 60.8135C225.434 60.3659 226.016 59.8377 226.571 59.229C227.144 58.6024 227.681 57.9668 228.183 57.3223C228.684 56.6598 229.132 56.0153 229.525 55.3887C229.919 54.7441 230.242 54.1891 230.492 53.7236V51.0649ZM258.234 53.7773C258.234 54.7979 258.01 55.8363 257.562 56.8926C257.115 57.9489 256.479 58.9157 255.656 59.793C254.85 60.6523 253.865 61.3595 252.702 61.9146C251.538 62.4696 250.231 62.7471 248.781 62.7471C247.599 62.7471 246.4 62.4964 245.182 61.9951C243.983 61.4938 242.899 60.7777 241.933 59.8467C240.966 58.8978 240.178 57.752 239.569 56.4092C238.961 55.0664 238.656 53.5625 238.656 51.8975C238.656 50.2503 238.97 48.6927 239.596 47.2246C240.241 45.7386 241.082 44.4495 242.121 43.3574C243.159 42.2474 244.341 41.3701 245.666 40.7256C247.008 40.0811 248.387 39.7588 249.801 39.7588C251.108 39.7588 252.209 39.9378 253.104 40.2959C254.018 40.6361 254.752 41.0479 255.307 41.5312C255.862 41.9967 256.256 42.4801 256.488 42.9814C256.739 43.4827 256.864 43.8856 256.864 44.1899C256.864 44.8703 256.721 45.4253 256.435 45.855C256.148 46.2847 255.817 46.6069 255.441 46.8218C255.083 47.0366 254.734 47.1619 254.394 47.1978C254.071 47.2157 253.865 47.153 253.776 47.0098C253.704 46.9382 253.624 46.9023 253.534 46.9023C253.463 46.9023 253.382 46.9202 253.292 46.9561C253.203 46.9919 253.113 47.0277 253.024 47.0635C252.952 47.0993 252.89 47.0993 252.836 47.0635C252.746 47.0277 252.737 46.9471 252.809 46.8218C252.899 46.6965 252.943 46.589 252.943 46.4995C252.943 46.3384 252.934 46.1593 252.917 45.9624C252.917 45.7476 252.961 45.5238 253.051 45.291C253.212 44.9688 253.275 44.6196 253.239 44.2437C253.221 43.8498 253.087 43.4827 252.836 43.1426C252.603 42.8024 252.227 42.516 251.708 42.2832C251.207 42.0505 250.553 41.9341 249.748 41.9341C249.175 41.9341 248.494 42.1221 247.707 42.498C246.919 42.874 246.167 43.4648 245.451 44.2705C244.752 45.0583 244.153 46.0698 243.651 47.3052C243.168 48.5226 242.926 49.9818 242.926 51.6826C242.926 52.4167 243.016 53.1865 243.195 53.9922C243.392 54.7979 243.732 55.5409 244.215 56.2212C244.699 56.9015 245.352 57.4655 246.176 57.9131C246.999 58.3428 248.047 58.5576 249.318 58.5576C250.159 58.5576 250.929 58.4412 251.627 58.2085C252.344 57.9757 252.988 57.6803 253.561 57.3223C254.134 56.9642 254.644 56.5703 255.092 56.1406C255.539 55.7109 255.915 55.3081 256.22 54.9321C256.524 54.5382 256.757 54.1981 256.918 53.9116C257.097 53.6252 257.204 53.4461 257.24 53.3745C257.312 53.285 257.401 53.2223 257.509 53.1865C257.616 53.1328 257.724 53.1239 257.831 53.1597C257.938 53.1776 258.028 53.2402 258.1 53.3477C258.189 53.4372 258.234 53.5804 258.234 53.7773ZM266.774 25.7671C266.792 25.8208 266.783 26.1252 266.747 26.6802C266.711 27.2352 266.658 27.9603 266.586 28.8555C266.532 29.7507 266.461 30.7801 266.371 31.9438C266.282 33.1076 266.183 34.334 266.076 35.623C265.986 36.8942 265.888 38.2012 265.78 39.5439C265.691 40.8688 265.601 42.14 265.512 43.3574C265.422 44.5749 265.342 45.7028 265.27 46.7412C265.216 47.7796 265.172 48.6569 265.136 49.373C265.512 49.1582 265.959 48.8091 266.479 48.3257C267.016 47.8244 267.571 47.2604 268.144 46.6338C268.734 46.0072 269.334 45.3537 269.943 44.6733C270.552 43.9751 271.125 43.3216 271.662 42.7129C272.199 42.0863 272.682 41.5312 273.112 41.0479C273.542 40.5645 273.873 40.2243 274.105 40.0273C274.428 39.7588 274.696 39.5887 274.911 39.5171C275.144 39.4276 275.332 39.4007 275.475 39.4365C275.636 39.4544 275.762 39.5171 275.851 39.6245C275.958 39.714 276.048 39.8125 276.12 39.9199C276.173 40.0273 276.218 40.1527 276.254 40.2959C276.308 40.4391 276.326 40.6003 276.308 40.7793C276.29 40.9404 276.218 41.1105 276.093 41.2896C275.985 41.4686 275.797 41.6476 275.529 41.8267C275.063 42.1668 274.553 42.7039 273.998 43.438C273.461 44.1541 272.861 44.9329 272.199 45.7744C271.536 46.6159 270.811 47.4395 270.023 48.2451C269.254 49.0508 268.412 49.7043 267.499 50.2056C267.768 50.4741 268.081 50.859 268.439 51.3604C268.815 51.8617 269.227 52.4077 269.674 52.9985C270.14 53.5894 270.641 54.1891 271.178 54.7979C271.733 55.4066 272.324 55.9616 272.951 56.4629C273.595 56.9642 274.276 57.376 274.992 57.6982C275.708 58.0205 276.469 58.1816 277.274 58.1816C278.152 58.1995 278.939 58.119 279.638 57.9399C280.354 57.743 280.972 57.5103 281.491 57.2417C282.01 56.9731 282.431 56.7046 282.753 56.436C283.093 56.1675 283.326 55.9616 283.451 55.8184C283.773 55.3708 284.042 55.2275 284.257 55.3887C284.49 55.5498 284.588 55.9079 284.552 56.4629C284.534 56.6777 284.445 57.009 284.284 57.4565C284.14 57.8862 283.926 58.3607 283.639 58.8799C283.353 59.3991 283.004 59.9362 282.592 60.4912C282.18 61.0283 281.697 61.5207 281.142 61.9683C280.604 62.4159 279.987 62.7829 279.289 63.0693C278.608 63.3558 277.865 63.499 277.06 63.499C276.021 63.499 275.063 63.2752 274.186 62.8276C273.327 62.38 272.53 61.8071 271.796 61.1089C271.062 60.4106 270.382 59.6318 269.755 58.7725C269.146 57.8952 268.573 57.0358 268.036 56.1943C267.499 55.3529 266.989 54.5741 266.505 53.8579C266.04 53.1418 265.583 52.5778 265.136 52.166C265.172 52.4525 265.189 52.7479 265.189 53.0522C265.189 53.3387 265.189 53.6341 265.189 53.9385C265.189 54.8695 265.181 55.8542 265.163 56.8926C265.163 57.9131 265.154 58.862 265.136 59.7393C265.118 60.6165 265.1 61.3685 265.082 61.9951C265.082 62.6038 265.082 62.9619 265.082 63.0693C265.082 63.3379 264.975 63.508 264.76 63.5796C264.563 63.6691 264.357 63.7139 264.142 63.7139C263.945 63.7139 263.703 63.6243 263.417 63.4453C263.148 63.2842 262.88 63.0872 262.611 62.8545C262.343 62.6396 262.083 62.4159 261.833 62.1831C261.6 61.9504 261.43 61.7713 261.322 61.646C261.233 61.5207 261.161 61.0731 261.107 60.3032C261.072 59.5334 261.054 58.5129 261.054 57.2417C261.054 56.3286 261.063 55.3081 261.081 54.1802C261.098 53.0343 261.125 51.8258 261.161 50.5547C261.215 49.2656 261.269 47.9318 261.322 46.5532C261.376 45.1567 261.439 43.7513 261.51 42.3369C261.618 39.9378 261.716 37.8341 261.806 36.0259C261.895 34.2176 261.985 32.66 262.074 31.353C262.164 30.0282 262.271 28.936 262.396 28.0767C262.522 27.1994 262.665 26.5101 262.826 26.0088C262.88 25.8835 262.996 25.7402 263.175 25.5791C263.354 25.418 263.587 25.2837 263.874 25.1763C264.285 25.033 264.652 24.8898 264.975 24.7466C265.315 24.5854 265.53 24.5049 265.619 24.5049C265.744 24.5049 265.87 24.5496 265.995 24.6392C266.138 24.7287 266.264 24.8361 266.371 24.9614C266.479 25.0868 266.568 25.221 266.64 25.3643C266.711 25.5075 266.756 25.6418 266.774 25.7671Z" fill="#004D00"/>
</svg>
